<svg xmlns="http://www.w3.org/2000/svg" viewBox="0 0 800 640" role="img" aria-labelledby="title02 desc02">
  <title id="title02">Inference Gateway architecture</title>
  <desc id="desc02">A vertical block diagram. An OpenAI-compatible client speaks HTTPS, SSE, and WebSocket into the Inference Gateway, a Rust process whose internal stack contains protocol adapters, a tokenizer with a token-budget estimator, an auth and quota layer, a router, a backend pool, and an observability module. Below the gateway is a row of heterogeneous GPU backends labelled H100, H200, B200, and A100.</desc>
  <style>
    .bg{fill:#fff}
    .stroke{stroke:#475569;fill:none;stroke-width:1.5}
    .text{font-family:'JetBrains Mono',ui-monospace,monospace;fill:#0f172a;font-size:13px}
    .text-sm{font-family:'JetBrains Mono',ui-monospace,monospace;fill:#64748b;font-size:11px}
    .text-label{font-family:'Inter',ui-sans-serif,system-ui,sans-serif;fill:#0f172a;font-size:14px;font-weight:600}
    .accent-blue{fill:#0ea5e9}
    .accent-green{fill:#76b900}
    .accent-slate{fill:#cbd5e1}
    .panel{fill:#f8fafc;stroke:#e2e8f0;stroke-width:1}
    .module{fill:#fff;stroke:#475569;stroke-width:1.5}
    .module-strong{fill:#fff;stroke:#0ea5e9;stroke-width:1.5}
    .arrow{stroke:#475569;fill:#475569;stroke-width:1.5}
    @media (prefers-color-scheme: dark) {
      .bg{fill:#0f172a}
      .stroke{stroke:#94a3b8}
      .text{fill:#e2e8f0}
      .text-sm{fill:#94a3b8}
      .text-label{fill:#f1f5f9}
      .accent-slate{fill:#475569}
      .panel{fill:#1e293b;stroke:#334155}
      .module{fill:#1e293b;stroke:#94a3b8}
      .module-strong{fill:#1e293b;stroke:#0ea5e9}
      .arrow{stroke:#94a3b8;fill:#94a3b8}
    }
  </style>
  <defs>
    <marker id="tri" viewBox="0 0 10 10" refX="5" refY="5" markerWidth="6" markerHeight="6" orient="auto-start-reverse">
      <path d="M0,0 L10,5 L0,10 z" class="arrow"/>
    </marker>
  </defs>
  <rect class="bg" width="800" height="640"/>

  <!-- Client -->
  <rect class="module" x="290" y="20" width="220" height="38" rx="19"/>
  <text class="text" x="400" y="44" text-anchor="middle">OpenAI-compatible client</text>
  <text class="text-sm" x="400" y="74" text-anchor="middle">HTTPS  ·  SSE  ·  WebSocket</text>

  <!-- arrow client -> gateway -->
  <line class="arrow" x1="400" y1="80" x2="400" y2="106" marker-end="url(#tri)"/>

  <!-- Gateway big panel -->
  <rect class="panel" x="60" y="110" width="680" height="410" rx="10"/>
  <text class="text-label" x="80" y="134">Inference Gateway (Rust)</text>

  <!-- Module 1: Protocol Adapters -->
  <rect class="module" x="100" y="150" width="600" height="40" rx="6"/>
  <text class="text" x="120" y="174">Protocol Adapters: OpenAI  ·  vendor  ·  raw</text>
  <line class="arrow" x1="400" y1="192" x2="400" y2="210" marker-end="url(#tri)"/>

  <!-- Module 2: Tokenizer -->
  <rect class="module" x="100" y="212" width="600" height="40" rx="6"/>
  <text class="text" x="120" y="236">Tokenizer + Token-Budget Estimator (FFI)</text>
  <line class="arrow" x1="400" y1="254" x2="400" y2="272" marker-end="url(#tri)"/>

  <!-- Module 3: Auth -->
  <rect class="module" x="100" y="274" width="600" height="40" rx="6"/>
  <text class="text" x="120" y="298">Auth  ·  Quota  ·  Rate Limit  ·  Cost Pre-check</text>
  <line class="arrow" x1="400" y1="316" x2="400" y2="334" marker-end="url(#tri)"/>

  <!-- Module 4: Router -->
  <rect class="module" x="100" y="336" width="600" height="40" rx="6"/>
  <text class="text" x="120" y="360">Router: model  ·  GPU  ·  region  ·  cache-affinity</text>
  <line class="arrow" x1="400" y1="378" x2="400" y2="396" marker-end="url(#tri)"/>

  <!-- Module 5: Backend Pool (taller) -->
  <rect class="module-strong" x="100" y="398" width="600" height="74" rx="6"/>
  <text class="text" x="120" y="420">Backend Pool — token-throughput health  ·  cancel-prop  ·  streaming</text>
  <text class="text-sm" x="140" y="440">↳ NIM  ·  TensorRT-LLM  ·  vLLM  ·  SGLang</text>
  <text class="text-sm" x="140" y="456">↳ cancellation propagates to GPU on client disconnect</text>
  <text class="text-sm" x="140" y="468">↳ surgical backpressure on slow consumers</text>
  <line class="arrow" x1="400" y1="474" x2="400" y2="492" marker-end="url(#tri)"/>

  <!-- Module 6: Observability -->
  <rect class="module" x="100" y="494" width="600" height="20" rx="6"/>
  <text class="text" x="120" y="510">Observability: tokens  ·  traces  ·  SLOs</text>

  <!-- arrow gateway -> backends -->
  <line class="arrow" x1="400" y1="522" x2="400" y2="548" marker-end="url(#tri)"/>

  <!-- Backends row -->
  <text class="text-sm" x="60" y="546">Heterogeneous GPU backends</text>

  <g>
    <rect class="module" x="120" y="558" width="130" height="46" rx="6"/>
    <circle class="accent-green" cx="138" cy="581" r="5" aria-hidden="true"/>
    <text class="text" x="152" y="578">H100</text>
    <text class="text-sm" x="152" y="594">loaded · healthy</text>
  </g>
  <g>
    <rect class="module" x="265" y="558" width="130" height="46" rx="6"/>
    <circle class="accent-green" cx="283" cy="581" r="5" aria-hidden="true"/>
    <text class="text" x="297" y="578">H200</text>
    <text class="text-sm" x="297" y="594">loaded · healthy</text>
  </g>
  <g>
    <rect class="module" x="410" y="558" width="130" height="46" rx="6"/>
    <circle class="accent-slate" cx="428" cy="581" r="5" aria-hidden="true"/>
    <text class="text" x="442" y="578">B200</text>
    <text class="text-sm" x="442" y="594">cold</text>
  </g>
  <g>
    <rect class="module" x="555" y="558" width="130" height="46" rx="6"/>
    <circle class="accent-slate" cx="573" cy="581" r="5" aria-hidden="true"/>
    <text class="text" x="587" y="578">A100</text>
    <text class="text-sm" x="587" y="594">cold</text>
  </g>

  <text class="text-sm" x="60" y="628">data flows downward; streams flow back up with explicit cancellation</text>
</svg>
